<svg width="157" height="35" viewBox="0 0 157 35" fill="none" xmlns="http://www.w3.org/2000/svg">
<g clip-path="url(#clip0_217_92)">
<path d="M105.46 14.3301C105.46 9.87012 102.84 7.15012 99.5 7.15012C97.53 7.15012 96.16 8.05012 95.41 9.27012V2.87012H90.52V21.3301H95.41V19.3801C96.13 20.6301 97.56 21.5001 99.5 21.5001C102.84 21.4901 105.46 18.7901 105.46 14.3301ZM100.92 14.3201C100.92 14.9001 100.75 15.4701 100.43 15.9501C100.11 16.4301 99.65 16.8101 99.11 17.0301C98.57 17.2501 97.99 17.3101 97.42 17.2001C96.85 17.0901 96.33 16.8101 95.92 16.4001C95.51 15.9901 95.23 15.4701 95.12 14.9001C95.01 14.3301 95.06 13.7401 95.29 13.2101C95.51 12.6701 95.89 12.2201 96.37 11.8901C96.85 11.5701 97.42 11.4001 98 11.4001C98.78 11.4001 99.52 11.7101 100.07 12.2601C100.62 12.8101 100.93 13.5601 100.93 14.3301L100.92 14.3201Z" fill="white"/>
<path d="M22.5 2.87012H27.39V21.3301H22.5V2.87012Z" fill="white"/>
<path d="M51.73 2.87012H56.62V9.32012C57.44 8.12012 58.91 7.20012 60.92 7.20012C64.11 7.20012 66.13 9.50012 66.13 13.1601V21.3201H61.25V13.8101C61.25 12.2001 60.35 11.2401 58.96 11.2401C57.57 11.2401 56.61 12.1901 56.61 13.8101V21.3201H51.72V2.87012H51.73Z" fill="white"/>
<path d="M80.74 7.31989V9.25989C80.02 8.00989 78.62 7.13989 76.63 7.13989C73.31 7.13989 70.67 9.82989 70.67 14.2999C70.67 18.7699 73.31 21.4799 76.63 21.4799C78.6 21.4799 80.02 20.6099 80.74 19.3599V21.3099H85.63V7.32989H80.74V7.31989ZM78.59 17.2499C78.01 17.2499 77.44 17.0799 76.96 16.7599C76.48 16.4399 76.1 15.9799 75.88 15.4399C75.66 14.8999 75.6 14.3199 75.71 13.7499C75.82 13.1799 76.1 12.6599 76.51 12.2499C76.92 11.8399 77.44 11.5599 78.01 11.4499C78.58 11.3399 79.17 11.3899 79.7 11.6199C80.24 11.8399 80.69 12.2199 81.02 12.6999C81.34 13.1799 81.51 13.7499 81.51 14.3299C81.51 14.7199 81.43 15.0999 81.29 15.4499C81.14 15.8099 80.93 16.1299 80.65 16.3999C80.38 16.6699 80.05 16.8899 79.7 17.0399C79.34 17.1899 78.96 17.2599 78.58 17.2599L78.59 17.2499Z" fill="white"/>
<path d="M114.91 7.32007H110.02V21.3101H114.91V7.32007Z" fill="white"/>
<path d="M112.46 5.72C114.04 5.72 115.32 4.44 115.32 2.86C115.32 1.28 114.04 0 112.46 0C110.88 0 109.6 1.28 109.6 2.86C109.6 4.44 110.88 5.72 112.46 5.72Z" fill="#08E8DE"/>
<path d="M119.8 2.87012H124.69V21.3301H119.8V2.87012Z" fill="white"/>
<path d="M129.57 2.87012H134.46V21.3301H129.57V2.87012Z" fill="white"/>
<path d="M18.04 7.31989H13.15C13.07 7.97989 12.94 8.63989 12.78 9.28989C11.45 7.90989 9.54 7.13989 7.33 7.13989C3.16 7.13989 0 9.85989 0 14.3099C0 18.7599 3.14 21.4899 7.31 21.4899C9.52 21.4899 11.45 20.7199 12.78 19.3399C12.94 19.9899 13.07 20.6499 13.15 21.3199H18.04C17.54 18.8799 16.7 16.5299 15.53 14.3299C16.7 12.1299 17.54 9.76989 18.04 7.31989ZM7.47 17.2499C6.89 17.2499 6.32 17.0799 5.84 16.7599C5.36 16.4399 4.98 15.9799 4.76 15.4399C4.54 14.8999 4.48 14.3199 4.59 13.7499C4.7 13.1799 4.98 12.6599 5.39 12.2499C5.8 11.8399 6.32 11.5599 6.89 11.4499C7.46 11.3399 8.05 11.3899 8.58 11.6199C9.12 11.8399 9.57 12.2199 9.9 12.6999C10.22 13.1799 10.39 13.7499 10.39 14.3299C10.39 15.1099 10.08 15.8499 9.53 16.3999C8.98 16.9499 8.23 17.2599 7.46 17.2599L7.47 17.2499Z" fill="white"/>
<path d="M41.26 7.1499C39.32 7.1499 37.89 8.0199 37.17 9.2699V7.3299H32.28V27.9999H37.17V19.3699C37.92 20.5899 39.29 21.4899 41.26 21.4899C44.6 21.4899 47.22 18.7699 47.22 14.3099C47.22 9.8499 44.6 7.1499 41.26 7.1499ZM39.75 17.2499C39.17 17.2499 38.6 17.0799 38.12 16.7599C37.64 16.4399 37.26 15.9799 37.04 15.4399C36.82 14.8999 36.76 14.3199 36.87 13.7499C36.98 13.1799 37.26 12.6599 37.67 12.2499C38.08 11.8399 38.6 11.5599 39.17 11.4499C39.74 11.3399 40.33 11.3899 40.86 11.6199C41.4 11.8399 41.85 12.2199 42.18 12.6999C42.5 13.1799 42.67 13.7499 42.67 14.3299C42.67 15.1099 42.36 15.8499 41.81 16.3999C41.26 16.9499 40.51 17.2599 39.74 17.2599L39.75 17.2499Z" fill="white"/>
<path d="M95.52 33.9599V24.8599H101.37V26.4199H97.24V28.5899H101.01V30.1499H97.24V32.3999H101.45V33.9599H95.52ZM102.15 33.9599L104.81 29.3699L102.17 24.8599H104.12L105.93 28.1499H106.16L107.97 24.8599H109.92L107.28 29.3699L109.94 33.9599H107.99L106.16 30.5899H105.93L104.1 33.9599H102.15ZM111.09 33.9599V24.8599H114.83C115.4 24.8599 115.9 24.9799 116.34 25.2099C116.78 25.4399 117.12 25.7599 117.37 26.1699C117.62 26.5899 117.75 27.0799 117.75 27.6499V27.8299C117.75 28.3899 117.62 28.8899 117.36 29.3099C117.11 29.7299 116.76 30.0499 116.32 30.2799C115.89 30.5099 115.39 30.6199 114.84 30.6199H112.81V33.9499H111.09V33.9599ZM112.81 29.0699H114.67C115.08 29.0699 115.41 28.9599 115.66 28.7299C115.91 28.4999 116.04 28.1999 116.04 27.8099V27.6799C116.04 27.2899 115.91 26.9799 115.66 26.7599C115.41 26.5299 115.08 26.4199 114.67 26.4199H112.81V29.0699ZM118.94 33.9599V24.8599H120.66V32.3999H124.82V33.9599H118.94ZM129.22 34.1399C128.08 34.1399 127.17 33.8299 126.49 33.1999C125.81 32.5699 125.48 31.6699 125.48 30.4999V28.3199C125.48 27.1499 125.82 26.2499 126.49 25.6299C127.17 24.9999 128.08 24.6799 129.22 24.6799C130.36 24.6799 131.27 24.9999 131.95 25.6299C132.63 26.2499 132.96 27.1499 132.96 28.3199V30.4999C132.96 31.6699 132.62 32.5699 131.95 33.1999C131.27 33.8199 130.36 34.1399 129.22 34.1399ZM129.22 32.6099C129.86 32.6099 130.36 32.4199 130.72 32.0499C131.08 31.6799 131.25 31.1799 131.25 30.5599V28.2699C131.25 27.6499 131.07 27.1499 130.72 26.7699C130.36 26.3999 129.87 26.2099 129.22 26.2099C128.57 26.2099 128.09 26.3999 127.73 26.7699C127.37 27.1399 127.2 27.6399 127.2 28.2699V30.5599C127.2 31.1799 127.38 31.6799 127.73 32.0499C128.09 32.4199 128.59 32.6099 129.22 32.6099ZM134.47 33.9599V24.8599H138.42C138.99 24.8599 139.49 24.9599 139.91 25.1599C140.33 25.3599 140.66 25.6399 140.9 25.9999C141.13 26.3599 141.25 26.7899 141.25 27.2899V27.4499C141.25 27.9999 141.12 28.4399 140.86 28.7799C140.6 29.1199 140.28 29.3599 139.9 29.5199V29.7499C140.25 29.7699 140.52 29.8899 140.71 30.1099C140.9 30.3299 141 30.6199 141 30.9799V33.9599H139.28V31.2299C139.28 31.0199 139.22 30.8499 139.11 30.7199C139.01 30.5899 138.83 30.5199 138.58 30.5199H136.19V33.9499H134.47V33.9599ZM136.19 28.9699H138.24C138.65 28.9699 138.96 28.8599 139.19 28.6499C139.42 28.4199 139.54 28.1299 139.54 27.7699V27.6399C139.54 27.2799 139.43 26.9899 139.2 26.7699C138.97 26.5399 138.65 26.4299 138.24 26.4299H136.19V28.9799V28.9699ZM142.69 33.9599V24.8599H148.54V26.4199H144.41V28.5899H148.18V30.1499H144.41V32.3999H148.62V33.9599H142.69ZM149.89 33.9599V24.8599H153.84C154.41 24.8599 154.91 24.9599 155.33 25.1599C155.75 25.3599 156.08 25.6399 156.32 25.9999C156.55 26.3599 156.67 26.7899 156.67 27.2899V27.4499C156.67 27.9999 156.54 28.4399 156.28 28.7799C156.02 29.1199 155.7 29.3599 155.32 29.5199V29.7499C155.67 29.7699 155.94 29.8899 156.13 30.1099C156.32 30.3299 156.42 30.6199 156.42 30.9799V33.9599H154.7V31.2299C154.7 31.0199 154.64 30.8499 154.53 30.7199C154.43 30.5899 154.25 30.5199 154 30.5199H151.61V33.9499H149.89V33.9599ZM151.61 28.9699H153.66C154.07 28.9699 154.38 28.8599 154.61 28.6499C154.84 28.4199 154.96 28.1299 154.96 27.7699V27.6399C154.96 27.2799 154.85 26.9899 154.62 26.7699C154.39 26.5399 154.07 26.4299 153.66 26.4299H151.61V28.9799V28.9699Z" fill="#08E8DE"/>
</g>
<defs>
<clipPath id="clip0_217_92">
<rect width="156.66" height="34.14" fill="white"/>
</clipPath>
</defs>
</svg>
