<svg width="25" height="24" viewBox="0 0 25 24" fill="none" xmlns="http://www.w3.org/2000/svg">
<g id="icon">
<path id="Icon (Stroke)" fill-rule="evenodd" clip-rule="evenodd" d="M12.5 1.75C6.83908 1.75 2.25 6.33908 2.25 12C2.25 17.6609 6.83908 22.25 12.5 22.25C18.1609 22.25 22.75 17.6609 22.75 12C22.75 6.33908 18.1609 1.75 12.5 1.75ZM0.75 12C0.75 5.51065 6.01065 0.25 12.5 0.25C18.9893 0.25 24.25 5.51065 24.25 12C24.25 18.4893 18.9893 23.75 12.5 23.75C6.01065 23.75 0.75 18.4893 0.75 12ZM12.5 7.25C12.9142 7.25 13.25 7.58579 13.25 8V14C13.25 14.4142 12.9142 14.75 12.5 14.75C12.0858 14.75 11.75 14.4142 11.75 14V8C11.75 7.58579 12.0858 7.25 12.5 7.25ZM12.5 16.25C12.9142 16.25 13.25 16.5858 13.25 17V17.01C13.25 17.4242 12.9142 17.76 12.5 17.76C12.0858 17.76 11.75 17.4242 11.75 17.01V17C11.75 16.5858 12.0858 16.25 12.5 16.25Z" fill="#EF476F"/>
</g>
</svg>
