<svg width="25" height="24" viewBox="0 0 25 24" fill="none" xmlns="http://www.w3.org/2000/svg">
<g id="icon">
<g id="Union">
<path d="M18.0303 9.53033C18.3232 9.23744 18.3232 8.76256 18.0303 8.46967C17.7374 8.17678 17.2626 8.17678 16.9697 8.46967L10.625 14.8143L8.03033 12.2197C7.73744 11.9268 7.26256 11.9268 6.96967 12.2197C6.67678 12.5126 6.67678 12.9874 6.96967 13.2803L9.65273 15.9634C10.1897 16.5004 11.0603 16.5004 11.5973 15.9634L18.0303 9.53033Z" fill="#06B1A9"/>
<path fill-rule="evenodd" clip-rule="evenodd" d="M12.5 0.25C6.01065 0.25 0.75 5.51065 0.75 12C0.75 18.4893 6.01065 23.75 12.5 23.75C18.9893 23.75 24.25 18.4893 24.25 12C24.25 5.51065 18.9893 0.25 12.5 0.25ZM2.25 12C2.25 6.33908 6.83908 1.75 12.5 1.75C18.1609 1.75 22.75 6.33908 22.75 12C22.75 17.6609 18.1609 22.25 12.5 22.25C6.83908 22.25 2.25 17.6609 2.25 12Z" fill="#06B1A9"/>
</g>
</g>
</svg>
